<?xml version="1.0"?>
<svg xmlns="http://www.w3.org/2000/svg" xmlns:xlink="http://www.w3.org/1999/xlink" version="1.1" id="Capa_1" x="0px" y="0px" viewBox="0 0 496 496" style="enable-background:new 0 0 496 496;" xml:space="preserve" width="512px" height="512px" class=""><g><path style="fill:#00ADFF" d="M248,328c-52.936,0-96-43.064-96-96c0-35.288,28.712-64,64-64h64c35.288,0,64,28.712,64,64  C344,284.936,300.936,328,248,328z" data-original="#F0BC5E" class="" data-old_color="#F0BC5E"/><path d="M248,0C111.256,0,0,111.248,0,248s111.256,248,248,248s248-111.248,248-248S384.744,0,248,0z M479.8,240h-24.168  c-0.88-22.976-5.312-45.504-13.632-67.016l-2.056-5.312L432,168c-26.472,0-48-21.528-48-48c0-6.488,1.272-12.784,3.784-18.712  l2.24-5.296l-4.312-3.816C349.688,60.312,303.88,42.208,256,40.368v-24.16C377.568,20.352,475.648,118.432,479.8,240z   M283.944,338.072L272.136,438.36C264.184,439.352,256.144,440,248,440c-8.176,0-16.216-0.576-24.128-1.568l-11.816-100.36  l-4.48-1.744c-24.32-9.472-44.704-27.2-57.4-49.944l-1.992-3.568l-90.616-10.688C56.576,264.216,56,256.176,56,248  c0-8.12,0.68-16.16,1.688-24.144l80.152-9.544l1.496-5.04C149.36,175.544,180.88,152,216,152h64c35.12,0,66.64,23.544,76.664,57.272  l1.496,5.04l80.152,9.544C439.32,231.84,440,239.88,440,248c0,8.144-0.688,16.176-1.688,24.144l-90.488,10.672l-1.992,3.568  c-12.696,22.744-33.08,40.48-57.4,49.944L283.944,338.072z M125.008,100.616C159.496,71.808,202.96,56,248,56  s88.504,15.808,122.992,44.616C369,106.856,368,113.36,368,120c0,34.28,27.096,62.352,60.992,63.928  c2.728,7.696,4.784,15.552,6.504,23.48l-65.16-7.76C356.776,161.912,320.368,136,280,136h-64c-40.368,0-76.776,25.912-90.336,63.648  l-65.16,7.76c1.72-7.928,3.776-15.784,6.504-23.48C100.904,182.352,128,154.28,128,120C128,113.36,127,106.856,125.008,100.616z   M207.432,435.648c-73.36-15.848-131.232-73.72-147.08-147.08l77.928,9.192c13.768,22.88,34.472,40.992,59,51.632L207.432,435.648z   M240,16.2v24.16c-47.88,1.848-93.688,19.944-129.712,51.816l-4.312,3.816l2.24,5.296C110.728,107.216,112,113.512,112,120  c0,26.472-21.528,48-48,48l-7.944-0.328L54,172.984c-8.32,21.512-12.752,44.04-13.632,67.016H16.2  C20.352,118.432,118.432,20.352,240,16.2z M16.2,256h24c4.128,108.336,91.464,195.672,199.8,199.8v24  C118.432,475.648,20.352,377.568,16.2,256z M256,479.8v-24.12c42.488-1.592,82.744-15.672,116.824-41.288l-9.608-12.8  c-22.416,16.848-47.752,28.224-74.64,33.992l10.144-86.2c24.528-10.64,45.232-28.752,59-51.632l77.84-9.176  c-7.44,34.624-24.232,66.632-49.32,92.656l11.512,11.112C433.448,355.32,453.864,307.168,455.8,256h23.992  C475.648,377.568,377.568,475.648,256,479.8z" data-original="#000000" class="active-path" style="fill:#86D8FF" data-old_color="#000000"/><path d="M248,208c-22.056,0-40,17.944-40,40s17.944,40,40,40s40-17.944,40-40S270.056,208,248,208z M248,272  c-13.232,0-24-10.768-24-24s10.768-24,24-24s24,10.768,24,24S261.232,272,248,272z" data-original="#000000" class="active-path" style="fill:#86D8FF" data-old_color="#000000"/></g> </svg>
