<?xml version="1.0"?>
<svg xmlns="http://www.w3.org/2000/svg" xmlns:xlink="http://www.w3.org/1999/xlink" version="1.1" id="Capa_1" x="0px" y="0px" viewBox="0 0 496 496" style="enable-background:new 0 0 496 496;" xml:space="preserve" width="512px" height="512px" class=""><g><path style="fill:#00ADFF" d="M296,228H144v-8c0-22.056,17.944-40,40-40h112V228z" data-original="#F0BC5E" class="" data-old_color="#F0BC5E"/><path d="M321.76,300l0.104-0.504c0.952-4.752,1.792-9.504,2.512-14.28l-15.816-2.424c-0.696,4.536-1.488,9.048-2.392,13.552  L305.44,300H232v-48h-16v48h-88v16h216v-16H321.76z" data-original="#000000" class="active-path" style="fill:#FFFFFF" data-old_color="#000000"/><rect x="256" y="244" width="16" height="16" data-original="#000000" class="active-path" style="fill:#FFFFFF" data-old_color="#000000"/><rect x="176" y="244" width="16" height="16" data-original="#000000" class="active-path" style="fill:#FFFFFF" data-old_color="#000000"/><path d="M326.88,204l-3.032-21.656c-2.8-19.576-19.824-34.344-39.6-34.344h-84.48c-27.784,0-53.896,10.824-73.536,30.464  l-23.192,23.192c-1.504,1.496-3.56,2.344-5.664,2.344H85.584c-26.032,0-51.592,7.08-73.944,20.48C4.464,228.8,0,236.688,0,245.064  V316h48v-16H16v-54.936c0-2.8,1.496-5.432,3.88-6.864C39.736,226.288,62.456,220,85.584,220h11.792  c6.408,0,12.44-2.496,16.968-7.032l23.192-23.192C154.168,173.16,176.256,164,199.768,164h84.488  c11.864,0,22.08,8.856,23.752,20.608l4,27.96v24.92c0,4.72-0.12,9.432-0.336,14.136l15.984,0.752  c0.224-4.952,0.344-9.912,0.344-14.88V220h152v40h-40v16h40c0,13.232-10.768,24-24,24h-32v16h32c22.056,0,40-17.944,40-40v-72  H326.88z" data-original="#000000" class="active-path" style="fill:#FFFFFF" data-old_color="#000000"/><path style="fill:#00ADFF" d="M88,348c-26.472,0-48-21.528-48-48s21.528-48,48-48s48,21.528,48,48S114.472,348,88,348z" data-original="#F0BC5E" class="" data-old_color="#F0BC5E"/><rect x="80" y="292" width="16" height="16" data-original="#000000" class="active-path" style="fill:#FFFFFF" data-old_color="#000000"/><path style="fill:#00ADFF" d="M384,348c-26.472,0-48-21.528-48-48s21.528-48,48-48s48,21.528,48,48S410.472,348,384,348z" data-original="#F0BC5E" class="" data-old_color="#F0BC5E"/><rect x="376" y="292" width="16" height="16" data-original="#000000" class="active-path" style="fill:#FFFFFF" data-old_color="#000000"/></g> </svg>
