<?xml version="1.0"?>
<svg xmlns="http://www.w3.org/2000/svg" height="512px" viewBox="0 -80 496 496" width="512px" class="hovered-paths"><g><path d="m324.230469 40h-86.277344c-28.457031 0-54.769531 15.113281-69.105469 39.6875l-32.847656 56.3125h272l-4.855469-29.152344c-6.433593-38.574218-39.808593-66.847656-78.914062-66.847656zm0 0" fill="#f0bc5e" data-original="#F0BC5E" class="hovered-path active-path" style="fill:#00ADFF" data-old_color="#f0bc5e"/><path d="m256 240h16v16h-16zm0 0" data-original="#000000" class="" style="fill:#FFFFFF" data-old_color="#000000"/><path d="m224 240h16v16h-16zm0 0" data-original="#000000" class="" style="fill:#FFFFFF" data-old_color="#000000"/><path d="m192 240h16v16h-16zm0 0" data-original="#000000" class="" style="fill:#FFFFFF" data-old_color="#000000"/><path d="m24.65625 171.921875c4.574219 2.519531 9.75 4.078125 15.34375 4.078125 17.671875 0 32-14.328125 32-32 0-4.648438-1.039062-9.03125-2.824219-13.023438l-2.480469.269532c-21.917968 2.441406-38.886718 19.433594-42.039062 40.675781zm0 0" fill="#f0bc5e" data-original="#F0BC5E" class="hovered-path active-path" style="fill:#00ADFF" data-old_color="#f0bc5e"/><path d="m457.816406 123.457031c-10.519531 5.238281-17.816406 15.992188-17.816406 28.542969 0 17.671875 14.328125 32 32 32 5.855469 0 11.28125-1.6875 16-4.441406v-11.558594c0-20.207031-12.503906-37.472656-30.183594-44.542969zm0 0" fill="#f0bc5e" data-original="#F0BC5E" class="hovered-path active-path" style="fill:#00ADFF" data-old_color="#f0bc5e"/><path d="m446.542969 112.375-3.261719-15.238281c-12.066406-56.289063-62.59375-97.136719-120.152344-97.136719h-85.640625c-41.175781 0-79.398437 20.457031-102.25 54.71875l-43.824219 65.738281-25.589843 2.839844c-28.410157 3.167969-49.824219 27.085937-49.824219 55.664063v50.597656c-10.046875 14.304687-16 31.671875-16 50.441406v8h40v-16h-23.550781c3.992187-35.953125 34.550781-64 71.550781-64s67.535156 28.054688 71.527344 64h-23.527344v16h224v-16h-23.527344c3.992188-35.945312 34.527344-64 71.527344-64s67.558594 28.046875 71.550781 64h-23.550781v16h40v-120c0-28.664062-21.648438-52.367188-49.457031-55.625zm-349.816407 80.066406c1.761719-9.960937 6.921876-19.066406 14.839844-25.664062l27.328125-22.777344h149.105469v16h-48v24c0 13.230469 10.769531 24 24 24h24v64h-112.40625c-3.800781-41.902344-37.058594-75.425781-78.867188-79.558594zm227.496094-144.441406c35.34375 0 65.210938 25.304688 71.023438 60.167969l3.3125 19.832031h-94.558594v-80zm-36.222656 80h-138.070312l25.824218-44.28125c12.855469-22.03125 36.695313-35.71875 62.199219-35.71875h50.046875zm0 64h-24c-4.414062 0-8-3.59375-8-8v-8h32zm32.40625 80h-16.40625v-128h96v48.40625c-42.144531 3.816406-75.777344 37.449219-79.59375 79.59375zm95.59375-79.59375v-56.40625l-4.96875-30.472656c-7.101562-42.597656-43.605469-73.527344-86.808594-73.527344h-86.269531c-31.167969 0-60.304687 16.726562-76.023437 43.664062l-32.136719 55.097657-28.488281 23.734375c-11.570313 9.640625-18.878907 23.160156-20.777344 37.886718-18.335938 1.546876-35.101563 8.6875-48.527344 19.785157v-33.207031c0-20.410157 15.296875-37.503907 35.585938-39.761719l33-3.664063 47.957031-71.941406c19.882812-29.800781 53.128906-47.59375 88.945312-47.59375h85.640625c50.070313 0 94.023438 35.535156 104.511719 84.496094l5.886719 27.503906h6.472656c22.054688 0 40 17.945312 40 40v61.558594c-14.488281-20.613282-37.550781-34.757813-64-37.152344zm0 0" data-original="#000000" class="" style="fill:#FFFFFF" data-old_color="#000000"/><path d="m408 336c-30.871094 0-56-25.121094-56-56s25.128906-56 56-56 56 25.121094 56 56-25.128906 56-56 56zm0-72c-8.824219 0-16 7.175781-16 16s7.175781 16 16 16 16-7.175781 16-16-7.175781-16-16-16zm0 0" fill="#f0bc5e" data-original="#F0BC5E" class="hovered-path active-path" style="fill:#00ADFF" data-old_color="#f0bc5e"/><path d="m88 336c-30.871094 0-56-25.121094-56-56s25.128906-56 56-56 56 25.121094 56 56-25.128906 56-56 56zm0-72c-8.824219 0-16 7.175781-16 16s7.175781 16 16 16 16-7.175781 16-16-7.175781-16-16-16zm0 0" fill="#f0bc5e" data-original="#F0BC5E" class="hovered-path active-path" style="fill:#00ADFF" data-old_color="#f0bc5e"/><path d="m408 304c-13.230469 0-24-10.769531-24-24s10.769531-24 24-24 24 10.769531 24 24-10.769531 24-24 24zm0-32c-4.414062 0-8 3.59375-8 8s3.585938 8 8 8 8-3.59375 8-8-3.585938-8-8-8zm0 0" data-original="#000000" class="" style="fill:#FFFFFF" data-old_color="#000000"/><path d="m88 304c-13.230469 0-24-10.769531-24-24s10.769531-24 24-24 24 10.769531 24 24-10.769531 24-24 24zm0-32c-4.414062 0-8 3.59375-8 8s3.585938 8 8 8 8-3.59375 8-8-3.585938-8-8-8zm0 0" data-original="#000000" class="" style="fill:#FFFFFF" data-old_color="#000000"/></g> </svg>
