<?xml version="1.0"?>
<svg xmlns="http://www.w3.org/2000/svg" id="Layer_35" enable-background="new 0 0 64 64" height="512px" viewBox="0 0 64 64" width="512px" class=""><g><path d="m32 2c16.57 0 30 13.43 30 30s-13.43 30-30 30-30-13.43-30-30 13.43-30 30-30zm24 30c0-2.23-.31-4.39-.88-6.44h-.01c-2.8-10.13-12.09-17.56-23.11-17.56s-20.31 7.43-23.11 17.56h-.01c-.57 2.05-.88 4.21-.88 6.44 0 2.07.26 4.08.76 6 2.17 8.43 8.81 15.07 17.24 17.24 1.92.5 3.93.76 6 .76s4.08-.26 6-.76c8.43-2.17 15.07-8.81 17.24-17.24.5-1.92.76-3.93.76-6z" fill="#838f9b" data-original="#838F9B" class=""/><path d="m25.41 22.3c-3.26 2.5-5.41 6.81-5.41 11.7 0 1.62.24 3.18.67 4.63-1.01-.42-2.09-.63-3.21-.63h-8.7c-.5-1.92-.76-3.93-.76-6 0-2.23.31-4.39.88-6.44h.01c.34-.12 7.09-2.43 16.52-3.26z" fill="#ccd1d9" data-original="#CCD1D9" class=""/><path d="m55.12 25.56c.57 2.05.88 4.21.88 6.44 0 2.07-.26 4.08-.76 6h-8.7c-1.12 0-2.2.21-3.21.63.43-1.45.67-3.01.67-4.63 0-4.89-2.15-9.19-5.41-11.7 9.43.83 16.18 3.14 16.52 3.26z" fill="#ccd1d9" data-original="#CCD1D9" class=""/><path d="m26 55.24v-8.7c0-1.14-.22-2.24-.65-3.27s-1.05-1.97-1.85-2.77c-.82-.82-1.78-1.45-2.83-1.87-.43-1.45-.67-3.01-.67-4.63 0-4.89 2.15-9.2 5.41-11.7 2.08-.19 4.29-.3 6.59-.3s4.51.11 6.59.3c3.26 2.51 5.41 6.81 5.41 11.7 0 1.62-.24 3.18-.67 4.63-.02 0-.04.01-.06.02-1.03.43-1.97 1.05-2.77 1.85-1.6 1.6-2.5 3.77-2.5 6.04v8.7c-1.92.5-3.93.76-6 .76s-4.08-.26-6-.76z" fill="#b4dd7f" data-original="#B4DD7F" class="active-path" style="fill:#00ADFF" data-old_color="#b4dd7f"/><path d="m16 29v4c0 .55-.45 1-1 1h-2c-.55 0-1-.45-1-1v-4c0-.55.45-1 1-1h2c.55 0 1 .45 1 1z" fill="#fcd770" data-original="#FCD770"/><path d="m52 29v4c0 .55-.45 1-1 1h-2c-.55 0-1-.45-1-1v-4c0-.55.45-1 1-1h2c.55 0 1 .45 1 1z" fill="#fcd770" data-original="#FCD770"/><circle cx="32" cy="32" fill="#e6e9ed" r="6" data-original="#E6E9ED" class=""/><path d="m32 1c-17.093 0-31 13.906-31 31s13.907 31 31 31 31-13.906 31-31-13.907-31-31-31zm0 60c-15.991 0-29-13.01-29-29s13.009-29 29-29 29 13.01 29 29-13.009 29-29 29z" data-original="#000000" class="" style="fill:#000000"/><path d="m48.801 19.399c-.553-.735-1.16-1.441-1.804-2.1l-1.429 1.4c.583.595 1.133 1.234 1.634 1.9z" data-original="#000000" class="" style="fill:#000000"/><path d="m44.602 15.2c-3.657-2.748-8.015-4.2-12.602-4.2v2c4.15 0 8.093 1.313 11.401 3.8z" data-original="#000000" class="" style="fill:#000000"/><path d="m32 7c-13.785 0-25 11.215-25 25s11.215 25 25 25 25-11.215 25-25-11.215-25-25-25zm22.446 30h-7.911c-.624 0-1.239.061-1.839.178.195-1.04.304-2.102.304-3.178 0-3.935-1.339-7.634-3.652-10.4 6.565.823 11.433 2.257 12.945 2.738.46 1.812.707 3.709.707 5.662 0 1.717-.195 3.389-.554 5zm-22.446-28c9.88 0 18.323 6.262 21.573 15.026-3.527-1.025-11.673-3.026-21.573-3.026s-18.046 2.001-21.573 3.026c3.25-8.764 11.693-15.026 21.573-15.026zm-23 23c0-1.953.247-3.85.707-5.662 1.511-.481 6.376-1.916 12.946-2.739-2.314 2.766-3.653 6.465-3.653 10.401 0 1.076.109 2.138.303 3.178-.599-.117-1.214-.178-1.839-.178h-7.91c-.359-1.611-.554-3.283-.554-5zm1.093 7h7.372c2.013 0 3.905.784 5.329 2.207 1.422 1.424 2.206 3.315 2.206 5.328v7.372c-7.061-2.261-12.646-7.846-14.907-14.907zm16.907 15.446v-7.911c0-2.547-.992-4.941-2.793-6.742-.792-.792-1.705-1.418-2.69-1.882-.337-1.261-.517-2.573-.517-3.911 0-4.32 1.803-8.302 4.821-10.733 1.96-.166 4.03-.267 6.179-.267s4.22.102 6.182.267c3.016 2.433 4.818 6.415 4.818 10.733 0 1.338-.18 2.65-.518 3.911-.985.464-1.897 1.089-2.69 1.882-1.8 1.801-2.792 4.195-2.792 6.742v7.911c-1.611.359-3.283.554-5 .554s-3.389-.195-5-.554zm12-.539v-7.372c0-2.013.784-3.904 2.207-5.328 1.423-1.423 3.316-2.207 5.329-2.207h7.372c-2.262 7.061-7.847 12.646-14.908 14.907z" data-original="#000000" class="" style="fill:#000000"/><path d="m39 32c0-3.859-3.14-7-7-7s-7 3.141-7 7 3.14 7 7 7 7-3.141 7-7zm-12 0c0-2.757 2.243-5 5-5s5 2.243 5 5-2.243 5-5 5-5-2.243-5-5z" data-original="#000000" class="" style="fill:#000000"/><path d="m51 27h-2c-1.103 0-2 .897-2 2v4c0 1.103.897 2 2 2h2c1.103 0 2-.897 2-2v-4c0-1.103-.897-2-2-2zm-2 6v-4h2l.001 4z" data-original="#000000" class="" style="fill:#000000"/><path d="m15 27h-2c-1.103 0-2 .897-2 2v4c0 1.103.897 2 2 2h2c1.103 0 2-.897 2-2v-4c0-1.103-.897-2-2-2zm-2 6v-4h2l.001 4z" data-original="#000000" class="" style="fill:#000000"/><path d="m29 51h6v2h-6z" data-original="#000000" class="" style="fill:#000000"/><path d="m29 47h6v2h-6z" data-original="#000000" class="" style="fill:#000000"/><path d="m29 43h6v2h-6z" data-original="#000000" class="" style="fill:#000000"/></g> </svg>
