<?xml version="1.0"?>
<svg xmlns="http://www.w3.org/2000/svg" xmlns:xlink="http://www.w3.org/1999/xlink" version="1.1" id="Capa_1" x="0px" y="0px" viewBox="0 0 496 496" style="enable-background:new 0 0 496 496;" xml:space="preserve" width="512px" height="512px" class=""><g><g>
	<path style="fill:#00ADFF" d="M381.648,68.896C380.112,56.984,369.872,48,357.848,48H138.152c-12.024,0-22.256,8.984-23.8,20.896   L99.48,182.968h297.048L381.648,68.896z" data-original="#F0BC5E" class="" data-old_color="#F0BC5E"/>
	<path style="fill:#00ADFF" d="M376,184h-7.504c-0.296,2.672-0.496,5.36-0.496,8c0,39.704,32.296,72,72,72v-16   C440,212.656,411.344,184,376,184z" data-original="#F0BC5E" class="" data-old_color="#F0BC5E"/>
	<path style="fill:#00ADFF" d="M120,184h7.504c0.296,2.672,0.496,5.36,0.496,8c0,39.704-32.296,72-72,72v-16   C56,212.656,84.656,184,120,184z" data-original="#F0BC5E" class="" data-old_color="#F0BC5E"/>
	<path style="fill:#00ADFF" d="M120,376h-8c-22.344,0-41.736-15.896-46.12-37.808L62.24,320H120V376z" data-original="#F0BC5E" class="" data-old_color="#F0BC5E"/>
	<path style="fill:#00ADFF" d="M384,376h-8v-56h57.76l-3.64,18.192C425.736,360.104,406.344,376,384,376z" data-original="#F0BC5E" class="" data-old_color="#F0BC5E"/>
</g><path d="M344,232h-32v16h32c4.416,0,8,3.592,8,8v16h-71.752l6-24H296v-16h-96v16h9.76l6,24H144v-16c0-4.408,3.584-8,8-8h32v-16h-32  c-13.232,0-24,10.768-24,24v48c0,22.056,17.944,40,40,40h160c22.056,0,40-17.944,40-40v-48C368,242.768,357.232,232,344,232z   M320,328h-16v-40h16V328z M288,288v40h-16v-29.168c1.616-2.544,2.88-5.36,3.64-8.416l0.608-2.416H288z M240,310.776  c2.56,0.744,5.224,1.224,8,1.224s5.44-0.48,8-1.224V328h-16V310.776z M269.76,248l-9.632,38.536  c-1.4,5.576-6.384,9.464-12.128,9.464s-10.728-3.888-12.128-9.464L226.24,248H269.76z M220.36,290.416  c0.76,3.056,2.024,5.872,3.64,8.416V328h-16v-40h11.752L220.36,290.416z M176,288h16v40h-16V288z M144,304v-16h16v38.528  C150.712,323.216,144,314.416,144,304z M336,326.528V288h16v16C352,314.416,345.288,323.216,336,326.528z" data-original="#000000" class="active-path" style="fill:#FFFFFF" data-old_color="#000000"/><path d="M480.984,112c-20.36,0-40.68,2.384-60.544,6.848l-7.056-54.096C409.768,36.96,385.888,16,357.848,16H138.152  c-28.04,0-51.912,20.96-55.528,48.76l-7.056,54.096C55.696,114.384,35.376,112,15.016,112H0v24c0,17.528,8.376,34.28,22.4,44.8  C32.024,188.016,43.952,192,56,192h10.024l-1.296,9.936C54.296,214.432,48,230.488,48,248v24H32v72c0,11.832,2.92,22.976,8,32.832  V456c0,13.232,10.768,24,24,24h48c13.232,0,24-10.768,24-24v-40h224v40c0,13.232,10.768,24,24,24h48c13.232,0,24-10.768,24-24  v-79.168c5.08-9.856,8-21,8-32.832v-72h-16v-24c0-17.512-6.296-33.568-16.728-46.064L429.976,192H440  c12.048,0,23.976-3.984,33.592-11.2C487.624,170.28,496,153.528,496,136v-24H480.984z M98.48,66.832  C101.072,46.976,118.128,32,138.152,32h219.704c20.024,0,37.08,14.976,39.672,34.832l15.6,119.592  C402.264,179.856,389.592,176,376,176H120c-13.592,0-26.264,3.856-37.12,10.424L98.48,66.832z M56,176c-8.6,0-17.128-2.84-24-8  c-3.04-2.28-5.656-5.008-7.896-8H40v-16H16.872c-0.536-2.616-0.872-5.288-0.872-8v-8c19.344,0.072,38.64,2.416,57.488,6.76  L68.112,176H56z M120,432h-16v16h16v8c0,4.408-3.584,8-8,8H64c-4.416,0-8-3.592-8-8v-8h16v-16H56v-34.488  C68.752,408.968,85.552,416,104,416h16V432z M155.624,400l6.12-16h172.512l6.12,16H155.624z M432,464h-48c-4.416,0-8-3.592-8-8v-8  h16v-16h-16v-16h16c18.448,0,35.248-7.032,48-18.488V432h-16v16h16v8C440,460.408,436.416,464,432,464z M432,272h-40v16h56v56  c0,30.88-25.128,56-56,56h-34.496l-12.232-32H150.728l-12.232,32H104c-30.872,0-56-25.12-56-56v-56h56v-16H64v-24  c0-15.144,6.072-28.88,15.872-38.976l0.056,0.008l0.008-0.088C90.12,198.512,104.304,192,120,192h256  c15.696,0,29.88,6.512,40.056,16.952l0.008,0.088l0.056-0.008C425.928,219.12,432,232.856,432,248V272z M480,136  c0,2.712-0.336,5.384-0.872,8H456v16h15.896c-2.24,2.992-4.864,5.72-7.904,8c-6.864,5.16-15.392,8-23.992,8h-12.112l-5.376-41.24  c18.848-4.344,38.144-6.688,57.488-6.76V136z" data-original="#000000" class="active-path" style="fill:#FFFFFF" data-old_color="#000000"/><rect x="202.743" y="112.003" transform="matrix(-0.7071 0.7071 -0.7071 -0.7071 508.2148 29.4969)" width="90.511" height="16" data-original="#000000" class="active-path" style="fill:#FFFFFF" data-old_color="#000000"/><rect x="185.365" y="95.99" transform="matrix(-0.7071 0.7071 -0.7071 -0.7071 428.5972 30.4494)" width="45.256" height="16" data-original="#000000" class="active-path" style="fill:#FFFFFF" data-old_color="#000000"/><rect x="265.36" y="128.009" transform="matrix(-0.7071 0.7071 -0.7071 -0.7071 587.7985 28.5445)" width="45.256" height="16" data-original="#000000" class="active-path" style="fill:#FFFFFF" data-old_color="#000000"/></g> </svg>
