<?xml version="1.0"?>
<svg xmlns="http://www.w3.org/2000/svg" xmlns:xlink="http://www.w3.org/1999/xlink" version="1.1" id="Capa_1" x="0px" y="0px" viewBox="0 0 496 496" style="enable-background:new 0 0 496 496;" xml:space="preserve" width="512px" height="512px" class="hovered-paths"><g><path d="M368,152h104v-48h-80V72h-32V48c0-4.416,3.592-8,8-8h8v24h48c17.648,0,32-14.352,32-32S441.648,0,424,0h-48v24h-8  c-13.232,0-24,10.768-24,24v24h-32v32h-2.936l-3.376-26.976C304.192,65.04,293.952,56,281.872,56H214.12  c-12.08,0-22.32,9.04-23.816,21.024L186.936,104H184V72h-32V48c0-13.232-10.768-24-24-24h-8V0H72C54.352,0,40,14.352,40,32  s14.352,32,32,32h48V40h8c4.408,0,8,3.584,8,8v24h-32v32H24v48h104c8.72,0,17.136,2.96,24,8.104v9.272  c0,12.456-4.848,24.168-13.656,32.968l11.312,11.312c9.808-9.8,15.896-22.312,17.712-35.832L184,200v24h-24v16h24v16h16v32h-32  v20.688l-32,32V368h-16v16h16v24h32.72c3.384,20.056,19.224,35.888,39.28,39.28V472c0,13.232,10.768,24,24,24h32  c13.232,0,24-10.768,24-24v-24.72c20.056-3.384,35.888-19.224,39.28-39.28H360v-24h16v-16h-16v-27.312l-32-32V288h-32v-32h16v-16h24  v-16h-24v-24l16.632-22.168c1.816,13.52,7.904,26.024,17.712,35.832l11.312-11.312c-8.808-8.816-13.656-20.52-13.656-32.976v-9.272  C350.864,154.96,359.28,152,368,152z M392,16h32c8.824,0,16,7.176,16,16s-7.176,16-16,16h-32v-8h16V24h-16V16z M104,48H72  c-8.824,0-16-7.176-16-16s7.176-16,16-16h32v8H88v16h16V48z M152,347.312l16-16V392h-16V347.312z M344,347.312V392h-16v-60.688  L344,347.312z M456,136h-48v-16h48V136z M328,88h48v16h-48V88z M120,88h48v16h-48V88z M40,120h48v16H40V120z M288,328v8h-24h-32h-24  v-8c0-22.056,17.944-40,40-40S288,305.944,288,328z M184,400v-96h13.48c-3.472,7.288-5.48,15.408-5.48,24v24h17.472  c-0.896,2.512-1.472,5.184-1.472,8v70.864C194.24,427.288,184,414.872,184,400z M264,480h-32c-4.408,0-8-3.584-8-8h16v-16h-16v-16  h16v-16h-16v-16h16v-16h-16v-16h16v-16h-16c0-4.416,3.592-8,8-8h32c4.408,0,8,3.584,8,8h-16v16h16v16h-16v16h16v16h-16v16h16v16h-16  v16h16C272,476.416,268.408,480,264,480z M312,400c0,14.872-10.24,27.288-24,30.864V360c0-2.816-0.576-5.488-1.472-8H304v-24  c0-8.592-2.008-16.712-5.48-24H312V400z M280,282.112C270.92,275.76,259.896,272,248,272s-22.92,3.76-32,10.112V256h64V282.112z   M323.2,158.408L298.008,192H296v2.672l-6.4,8.528l6.4,4.8v32h-96v-32l6.4-4.8l-6.4-8.528V192h-2l-25.2-33.592  C162.28,144.376,145.528,136,128,136h-24v-16h80.936l-0.88,7.008l15.872,1.984l6.248-49.984c0.512-3.992,3.92-7.008,7.952-7.008  h67.752c4.024,0,7.44,3.016,7.936,7.008l6.248,49.984l15.872-1.984L311.064,120H392v16h-24  C350.472,136,333.72,144.376,323.2,158.408z" data-original="#000000" class="hovered-path active-path" data-old_color="#000000" style="fill:#FFFFFF"/><circle style="fill:#00ADFF" cx="248" cy="160" r="72" data-original="#F0BC5E" class="" data-old_color="#F0BC5E"/><path d="M248,112c-26.472,0-48,21.528-48,48s21.528,48,48,48s48-21.528,48-48S274.472,112,248,112z M248,192  c-17.648,0-32-14.352-32-32s14.352-32,32-32s32,14.352,32,32S265.648,192,248,192z" data-original="#000000" class="hovered-path active-path" data-old_color="#000000" style="fill:#FFFFFF"/><g>
	<path style="fill:#00ADFF" d="M136,264c-17.648,0-32-14.352-32-32s14.352-32,32-32s32,14.352,32,32S153.648,264,136,264z" data-original="#F0BC5E" class="" data-old_color="#F0BC5E"/>
	<path style="fill:#00ADFF" d="M360,264c-17.648,0-32-14.352-32-32s14.352-32,32-32s32,14.352,32,32S377.648,264,360,264z" data-original="#F0BC5E" class="" data-old_color="#F0BC5E"/>
</g></g> </svg>
