<?xml version="1.0"?>
<svg xmlns="http://www.w3.org/2000/svg" id="Layer_1" enable-background="new 0 0 64 64" height="512px" viewBox="0 0 64 64" width="512px"><g><g><path d="m40.751 62.407c-.718 0-1.407-.218-1.993-.629l-6.758-4.728-6.76 4.729c-.888.621-2.034.79-3.064.458-1.03-.335-1.856-1.146-2.21-2.17l-2.688-7.8-8.246-.15c-1.083-.021-2.109-.556-2.745-1.43-.637-.878-.829-2.02-.514-3.054l2.401-7.892-6.58-4.971c-.864-.652-1.379-1.688-1.379-2.771s.516-2.119 1.38-2.771l6.579-4.972-2.401-7.892c-.315-1.035-.123-2.177.514-3.053s1.663-1.411 2.746-1.43l8.246-.151 2.689-7.798c.353-1.025 1.18-1.837 2.211-2.171 1.029-.333 2.176-.165 3.063.458l6.758 4.73 6.759-4.73c.893-.621 2.036-.792 3.066-.457 1.029.334 1.855 1.146 2.209 2.17l2.688 7.799 8.246.151c1.082.02 2.108.554 2.746 1.429.638.878.829 2.02.513 3.055l-2.399 7.89 6.577 4.971c.864.652 1.381 1.688 1.381 2.771s-.516 2.119-1.381 2.771l-6.578 4.972 2.4 7.892c.316 1.034.124 2.176-.514 3.053-.636.875-1.661 1.41-2.744 1.431l-8.247.15-2.688 7.799c-.354 1.024-1.181 1.836-2.21 2.171-.348.113-.708.17-1.073.17zm-17.503-57.815c-.049 0-.098.008-.146.023-.14.045-.252.156-.3.295l-3.031 8.79c-.205.596-.761 1-1.391 1.011l-9.295.17c-.147.003-.287.076-.374.195-.087.12-.113.275-.07.416l2.706 8.894c.183.602-.029 1.254-.531 1.633l-7.415 5.604c-.118.089-.188.23-.188.377s.07.289.188.377l7.415 5.604c.502.379.714 1.031.531 1.633l-2.706 8.894c-.043.141-.017.297.071.417.086.118.226.19.374.193l9.294.17c.63.012 1.186.416 1.391 1.011l3.03 8.79c.048.14.161.25.302.296.139.045.295.023.416-.063l7.621-5.332c.517-.361 1.203-.361 1.72 0l7.62 5.331c.121.086.283.104.419.063.139-.046.252-.156.3-.297l3.03-8.789c.205-.595.761-.999 1.391-1.011l9.295-.17c.147-.003.287-.075.373-.194.089-.121.114-.272.071-.415l-2.706-8.895c-.184-.602.028-1.254.53-1.633l7.415-5.604c.118-.089.188-.23.188-.377s-.07-.288-.188-.376c0 0-.001-.001-.001-.001l-7.414-5.604c-.502-.379-.714-1.031-.531-1.633l2.705-8.894c.044-.142.018-.297-.069-.417s-.224-.191-.374-.194l-9.295-.17c-.63-.011-1.186-.415-1.391-1.011l-3.03-8.79c-.048-.139-.161-.25-.302-.295-.14-.046-.297-.022-.419.063l-7.618 5.331c-.517.361-1.203.361-1.72 0l-7.62-5.332c-.079-.055-.175-.084-.271-.084z" data-original="#000000" class="active-path" data-old_color="#000000" fill="#00ADFF"/><g><path d="m32 49.643c-9.729 0-17.643-7.914-17.643-17.642 0-9.729 7.915-17.644 17.643-17.644s17.644 7.915 17.644 17.644c-.001 9.728-7.916 17.642-17.644 17.642zm0-32.286c-8.074 0-14.643 6.569-14.643 14.644 0 8.074 6.569 14.642 14.643 14.642s14.644-6.568 14.644-14.642c-.001-8.075-6.57-14.644-14.644-14.644z" data-original="#000000" class="active-path" data-old_color="#000000" fill="#00ADFF"/><g><path d="m25.333 30.35c-.465 0-.901.181-1.23.51-.328.328-.509.765-.509 1.23s.181.901.509 1.229l4.385 4.386c.329.328.765.508 1.23.508.504 0 .947-.184 1.281-.517l8.889-8.891c.334-.334.518-.778.518-1.25s-.184-.915-.518-1.249c-.666-.668-1.828-.668-2.497 0l-7.691 7.69-3.139-3.137c-.327-.328-.764-.509-1.228-.509z" data-original="#000000" class="active-path" data-old_color="#000000" fill="#00ADFF"/></g></g></g></g> </svg>
